<svg width="407" height="290" viewBox="0 0 407 290" fill="none" xmlns="http://www.w3.org/2000/svg">
<path opacity="0.1" d="M147.466 41.7348C130.366 50.7683 116.723 58.7178 106.536 65.5833C96.3491 72.4487 87.7993 81.1209 80.8867 91.5998C74.3379 102.079 71.0635 114.726 71.0635 129.54C76.5208 137.49 82.8877 143.813 90.1641 148.511C97.8043 153.208 107.082 156.46 117.996 158.267C156.197 165.133 175.298 185.548 175.298 219.514C175.298 239.749 168.204 256.552 154.015 269.921C139.826 283.291 121.453 289.976 98.8958 289.976C79.6133 289.976 62.5138 285.278 47.5971 275.883C32.6805 266.488 21.0382 253.3 12.6704 236.317C4.66633 219.334 0.664307 200.002 0.664307 178.321C0.664307 151.944 6.48543 126.108 18.1277 100.814C30.1338 75.1588 47.4152 53.2977 69.9721 35.2307C92.5289 17.1637 118.906 5.4201 149.103 0C159.29 8.31083 165.839 18.4284 168.749 30.3526L147.466 41.7348ZM379.401 41.7348C362.302 50.7683 348.658 58.7178 338.471 65.5833C328.284 72.4487 319.735 81.1209 312.822 91.5998C306.273 102.079 302.999 114.726 302.999 129.54C313.186 145.078 328.83 154.654 349.932 158.267C387.769 165.133 406.688 185.548 406.688 219.514C406.688 239.749 399.593 256.552 385.404 269.921C371.579 283.291 353.388 289.976 330.831 289.976C311.549 289.976 294.449 285.278 279.533 275.883C264.616 266.488 252.974 253.3 244.606 236.317C236.602 219.334 232.6 200.002 232.6 178.321C232.6 151.944 238.421 126.108 250.063 100.814C262.069 75.1588 279.351 53.2977 301.908 35.2307C324.464 17.1637 350.841 5.4201 381.038 0C391.225 8.31083 397.774 18.4284 400.685 30.3526L379.401 41.7348Z" fill="#0D4A31"/>
</svg>
